<svg width="36" height="36" viewBox="0 0 36 36" fill="none" xmlns="http://www.w3.org/2000/svg">
<path d="M27 18C27 14.47 24.96 11.42 22 9.95V14.37L26.91 19.28C26.97 18.86 27 18.43 27 18ZM32 18C32 19.88 31.59 21.65 30.92 23.28L33.95 26.31C35.25 23.82 36 21 36 18C36 9.44 30.01 2.28 22 0.46V4.59C27.78 6.31 32 11.66 32 18ZM2.55 0L0 2.55L9.45 12H0V24H8L18 34V20.55L26.51 29.06C25.17 30.09 23.66 30.92 22 31.42V35.55C24.75 34.92 27.26 33.66 29.37 31.93L33.45 36L36 33.45L18 15.45L2.55 0ZM18 2L13.82 6.18L18 10.36V2Z" fill="#fff"/>
</svg>
